<?xml version="1.0" encoding="UTF-8" standalone="no"?>
<!-- Created with Inkscape (http://www.inkscape.org/) -->

<svg
   width="300mm"
   height="300mm"
   viewBox="0 0 300 300"
   version="1.1"
   id="svg5"
   xml:space="preserve"
   inkscape:export-filename="circularLogo.png"
   inkscape:export-xdpi="67.730003"
   inkscape:export-ydpi="67.730003"
   sodipodi:docname="circularMasterLogo.svg"
   inkscape:version="1.2.2 (b0a8486541, 2022-12-01)"
   xmlns:inkscape="http://www.inkscape.org/namespaces/inkscape"
   xmlns:sodipodi="http://sodipodi.sourceforge.net/DTD/sodipodi-0.dtd"
   xmlns="http://www.w3.org/2000/svg"
   xmlns:svg="http://www.w3.org/2000/svg"><sodipodi:namedview
     id="namedview7"
     pagecolor="#ffffff"
     bordercolor="#000000"
     borderopacity="0.25"
     inkscape:showpageshadow="2"
     inkscape:pageopacity="0.0"
     inkscape:pagecheckerboard="0"
     inkscape:deskcolor="#d1d1d1"
     inkscape:document-units="mm"
     showgrid="false"
     showguides="true"
     inkscape:zoom="0.58343087"
     inkscape:cx="645.32067"
     inkscape:cy="521.05573"
     inkscape:window-width="1920"
     inkscape:window-height="1011"
     inkscape:window-x="0"
     inkscape:window-y="0"
     inkscape:window-maximized="1"
     inkscape:current-layer="g2066" /><defs
     id="defs2" /><g
     inkscape:label="Layer 1"
     inkscape:groupmode="layer"
     id="layer1"><text
       xml:space="preserve"
       style="font-style:normal;font-variant:normal;font-weight:bold;font-stretch:normal;font-size:20.534px;font-family:C059;-inkscape-font-specification:'C059 Bold';fill:#000000;stroke:#ff9800;stroke-width:0.012935"
       x="98.128189"
       y="184.27196"
       id="text1316"><tspan
         sodipodi:role="line"
         style="stroke-width:0.012935"
         x="98.128189"
         y="184.27196"
         id="tspan1368" /></text><g
       id="g2066"><path
         style="fill:#000000;stroke-width:0.664483"
         d="m 23.591599,218.11656 c -4.889191,-2.78225 -7.048961,-9.73251 -4.616948,-14.85761 1.383038,-2.91452 3.776662,-4.78239 7.354952,-5.73945 l 2.838715,-0.75924 0.17689,-17.30777 0.176891,-17.30773 7.973801,-4.09145 7.973803,-4.09142 0.332241,-38.6531 0.332244,-38.653057 2.482054,-2.274244 c 1.984022,-1.817911 3.030095,-2.274244 5.213344,-2.274244 3.319402,0 5.990163,1.478679 7.663779,4.243083 1.182582,1.953349 1.263389,4.197413 1.439616,39.979322 l 0.186705,37.9098 7.360672,3.62041 c 4.048372,1.99122 7.77683,4.21022 8.285466,4.93111 0.729908,1.0345 0.92478,4.78013 0.92478,17.77493 v 16.46423 l 4.485265,9.6e-4 c 5.108663,9.8e-4 8.272527,1.27638 10.41838,4.19914 1.11856,1.52351 1.376203,2.86054 1.376203,7.14175 v 5.26732 l 67.795578,9.7e-4 c 11.21858,1.8e-4 22.21254,0.004 32.68541,0.0169 45.80341,0.0549 81.63969,0.27034 82.70849,1.019 1.6248,1.13812 1.91542,2.91253 0.67943,4.14856 -0.43093,0.43094 -35.17618,0.64868 -83.37856,0.73718 -20.41461,0.0375 -43.24298,0.0517 -66.90071,0.0493 l -103.36041,-0.0111 z m 8.944054,-5.75962 c -0.866919,-1.61986 -0.886695,-5.41456 -0.03982,-7.64199 0.633932,-1.66738 0.585263,-1.70447 -2.236082,-1.70447 -5.651715,0 -8.300241,4.69622 -5.008562,8.88092 1.157266,1.47122 1.903794,1.75082 4.674763,1.75082 3.054301,0 3.246823,-0.0948 2.609706,-1.28528 z m 10.795282,-2.59151 c -0.212958,-2.34855 -0.04792,-4.44409 0.418633,-5.31587 0.639222,-1.1944 0.591118,-1.43908 -0.282935,-1.43908 -1.618878,0 -4.764423,1.8178 -5.225727,3.01995 -1.291904,3.36665 0.916164,7.61179 3.959196,7.61179 1.404286,0 1.463852,-0.20419 1.130833,-3.87679 z m 11.303962,2.04946 c -0.634845,-2.34294 -0.628239,-4.657 0.02016,-7.05735 0.493804,-1.82808 0.43775,-1.88924 -1.344855,-1.46676 -5.614922,1.33072 -5.487714,10.35144 0.145968,10.35144 1.503081,0 1.623349,-0.18645 1.17873,-1.82733 z m 10.987014,-0.20908 c -0.684896,-1.96468 -0.495722,-5.01239 0.461342,-7.43249 0.64777,-1.63798 -1.67683,-1.54372 -3.837177,0.15563 -2.207601,1.73651 -2.771538,4.18342 -1.521333,6.60105 1.071661,2.07235 1.859357,2.57762 4.146536,2.65977 1.344956,0.0483 1.404353,-0.10871 0.750632,-1.98394 z m 11.434136,0.75113 c -0.86692,-1.61986 -0.886693,-5.41456 -0.03979,-7.64199 0.508136,-1.33652 0.443162,-1.70447 -0.300979,-1.70447 -2.965383,0 -5.662927,2.87804 -5.662927,6.04183 0,1.87721 2.941356,4.58991 4.976802,4.58991 1.489454,0 1.624403,-0.16891 1.026925,-1.28528 z m 12.468914,0.4879 c 1.191739,-1.19173 1.013783,-7.52957 -0.246809,-8.79016 -1.29038,-1.2904 -1.849696,-1.29993 -4.224156,-0.0721 -2.061054,1.06583 -2.705458,2.22189 -2.705458,4.85362 0,3.51103 4.923704,6.26134 7.176423,4.0086 z M 39.821593,191.38201 c 0,-4.73973 0.211224,-5.85932 1.313337,-6.96143 0.984226,-0.98423 1.691906,-1.17367 2.824055,-0.75603 1.40846,0.51957 1.523591,0.99078 1.700902,6.96145 l 0.190183,6.40413 h 2.633871 2.633872 v -2.70163 c 0,-3.46824 0.985647,-5.27217 2.880658,-5.27217 2.277635,0 3.099694,1.26882 3.099694,4.78429 v 3.18951 h 2.632998 2.632999 l 0.191057,-6.06752 c 0.165487,-5.25559 0.373025,-6.18809 1.550841,-6.96829 1.158431,-0.76739 1.576611,-0.74891 2.824056,0.12487 1.323763,0.92719 1.464268,1.59585 1.464268,6.96827 v 5.94269 h 2.657935 2.657934 v -9.30279 -9.30276 H 54.440232 35.170207 v 9.30276 9.30279 h 2.325693 2.325693 z m 33.88866,-22.10742 v -3.16967 l -7.648883,-3.80743 c -6.950094,-3.45956 -8.043819,-3.8074 -11.971774,-3.8074 -3.914374,0 -5.01257,0.34588 -11.621137,3.66019 l -7.298252,3.66023 v 3.31686 3.31686 H 54.440232 73.710253 Z M 56.43368,150.18405 c 0,-2.21494 -0.110755,-2.3257 -2.32569,-2.3257 -2.214946,0 -2.325693,0.11061 -2.325693,2.3257 0,2.21494 0.110755,2.32567 2.325693,2.32567 2.214944,0 2.32569,-0.11076 2.32569,-2.32567 z M 56.273999,110.14891 56.101434,78.41984 h -1.993449 -1.993452 l -0.172565,31.72907 -0.172562,31.72909 h 2.338579 2.338577 z"
         id="path406"
         sodipodi:nodetypes="ssscccccccsssscsssccssccssssccssssssssssssssssssssssssssscssssscscsccscsscccssscccsssscccccccccccscssssccccccscssscccccccccc" /><path
         id="circle982"
         style="fill:#000000;stroke:#ff9800;stroke-width:0.00183307"
         d="m 260.76335,188.61696 v 0.003 c -0.01,0.022 -0.95215,2.25144 -3.6201,4.39068 -0.0101,0.008 -0.0198,0.016 -0.0295,0.024 -0.006,0.005 -0.0114,0.009 -0.0171,0.0135 v 9.7e-4 c -0.50247,0.41698 -0.79332,1.03593 -0.79363,1.68887 10e-6,1.21286 0.98322,2.19609 2.19608,2.19609 0.70668,-6.1e-4 1.36989,-0.34124 1.78203,-0.91528 l 0.10313,-0.004 c -0.0672,3.77169 -2.0684,4.65506 -2.0684,4.65506 h 2.42491 v -9.7e-4 h 2.47098 c 0,0 -2.04641,-0.8842 -2.11449,-4.65757 l 0.14871,0.005 c 0.41214,0.57437 1.07558,0.91523 1.78252,0.9158 1.21286,-1e-5 2.19608,-0.98323 2.19608,-2.1961 -3e-5,-0.65303 -0.29071,-1.27218 -0.7931,-1.68938 -0.0136,-0.0108 -0.0266,-0.0218 -0.04,-0.0326 l -0.009,-0.007 c -2.66348,-2.1365 -3.60696,-4.36174 -3.6181,-4.38818 v -0.002 c 0,0 -4.9e-4,4.9e-4 -4.9e-4,5e-4 -3e-5,-6e-5 -5.1e-4,-0.002 -5.1e-4,-0.002 z"
         sodipodi:nodetypes="ccsccccccccccccccccccccccc" /><path
         d="m 244.07836,145.45866 c 20.09753,0.0549 35.82171,0.27034 36.29067,1.01901 0.71292,1.13812 0.84045,2.91252 0.29812,4.14855 -0.18908,0.43094 -15.43454,0.64868 -36.58469,0.73718"
         style="fill:#000000;stroke-width:0.440156"
         id="path1240" /><path
         d="m 239.96903,145.45535 c 0.0549,36.86328 0.27034,65.7049 1.01901,66.56507 1.13812,1.30766 2.91252,1.54158 4.14856,0.54681 0.43093,-0.34681 0.64867,-28.31033 0.73717,-67.10437"
         style="fill:#000000;stroke-width:0.596119"
         id="path1260" /><text
         xml:space="preserve"
         style="font-style:normal;font-variant:normal;font-weight:bold;font-stretch:normal;font-size:25.2127px;font-family:C059;-inkscape-font-specification:'C059 Bold';fill:#000000;stroke:#ff9800;stroke-width:0.0158819"
         x="98.058655"
         y="154.49951"
         id="text1372"
         transform="scale(0.85373009,1.1713304)"><tspan
           sodipodi:role="line"
           style="font-style:normal;font-variant:normal;font-weight:bold;font-stretch:normal;font-family:C059;-inkscape-font-specification:'C059 Bold';fill:#000000;stroke-width:0.0158819"
           x="98.058655"
           y="154.49951"
           id="tspan1376">Ace of Spade </tspan></text><text
         xml:space="preserve"
         style="font-style:normal;font-variant:normal;font-weight:bold;font-stretch:normal;font-size:19.0273px;font-family:C059;-inkscape-font-specification:'C059 Bold';fill:#000000;stroke:#ff9800;stroke-width:0.0119856"
         x="298.64487"
         y="152.64729"
         id="text1382"
         transform="scale(0.85373009,1.1713304)"><tspan
           sodipodi:role="line"
           style="font-style:normal;font-variant:normal;font-weight:bold;font-stretch:normal;font-family:C059;-inkscape-font-specification:'C059 Bold';fill:#000000;stroke-width:0.0119856"
           x="298.64487"
           y="152.64729"
           id="tspan1380">A</tspan></text><text
         xml:space="preserve"
         style="font-style:normal;font-variant:normal;font-weight:bold;font-stretch:normal;font-size:25.2127px;font-family:C059;-inkscape-font-specification:'C059 Bold';fill:#000000;stroke:#ff9800;stroke-width:0.0158819"
         x="149.63387"
         y="178.54466"
         id="text1390"
         transform="scale(0.85373009,1.1713304)"><tspan
           sodipodi:role="line"
           style="font-style:normal;font-variant:normal;font-weight:bold;font-stretch:normal;font-family:C059;-inkscape-font-specification:'C059 Bold';fill:#000000;stroke-width:0.0158819"
           x="149.63387"
           y="178.54466"
           id="tspan1388">Cleaners</tspan></text></g><circle
       style="fill:none;stroke:#000000;stroke-width:6.78246;stroke-dasharray:none;stroke-opacity:1"
       id="path1408"
       cx="150.26212"
       cy="149.65457"
       r="145.24509" /></g></svg>
