<?xml version="1.0" encoding="UTF-8" standalone="no"?>
<!-- Created with Inkscape (http://www.inkscape.org/) -->

<svg
   width="300mm"
   height="300mm"
   viewBox="0 0 300 300"
   version="1.1"
   id="svg5"
   xml:space="preserve"
   inkscape:export-filename="croppedLogo.png"
   inkscape:export-xdpi="67.730003"
   inkscape:export-ydpi="67.730003"
   inkscape:version="1.2.2 (b0a8486541, 2022-12-01)"
   sodipodi:docname="masterLogo.svg"
   xmlns:inkscape="http://www.inkscape.org/namespaces/inkscape"
   xmlns:sodipodi="http://sodipodi.sourceforge.net/DTD/sodipodi-0.dtd"
   xmlns="http://www.w3.org/2000/svg"
   xmlns:svg="http://www.w3.org/2000/svg"><sodipodi:namedview
     id="namedview7"
     pagecolor="#ffffff"
     bordercolor="#000000"
     borderopacity="0.25"
     inkscape:showpageshadow="2"
     inkscape:pageopacity="0.0"
     inkscape:pagecheckerboard="0"
     inkscape:deskcolor="#d1d1d1"
     inkscape:document-units="mm"
     showgrid="false"
     showguides="true"
     inkscape:zoom="0.63455606"
     inkscape:cx="680.00296"
     inkscape:cy="524.77633"
     inkscape:window-width="1920"
     inkscape:window-height="1011"
     inkscape:window-x="0"
     inkscape:window-y="0"
     inkscape:window-maximized="1"
     inkscape:current-layer="layer1" /><defs
     id="defs2" /><g
     inkscape:label="Layer 1"
     inkscape:groupmode="layer"
     id="layer1"><path
       style="fill:#000000;stroke-width:0.685796"
       d="m 19.634662,220.17395 c -5.046006,-2.87148 -7.275048,-10.04466 -4.765031,-15.33414 1.427398,-3.00801 3.897795,-4.93579 7.590853,-5.92354 l 2.929764,-0.7836 0.182563,-17.86289 0.182565,-17.86286 8.229551,-4.22268 8.229553,-4.22264 0.342898,-39.89285 0.342899,-39.89281 2.561663,-2.347188 c 2.047658,-1.876219 3.127282,-2.347188 5.380556,-2.347188 3.425868,0 6.182291,1.526106 7.909585,4.379175 1.220513,2.016001 1.303912,4.33204 1.485791,41.261611 l 0.192694,39.12572 7.596756,3.73652 c 4.178219,2.0551 8.026262,4.34526 8.551212,5.08927 0.753319,1.06769 0.954441,4.93345 0.954441,18.34504 v 16.9923 l 4.629124,0.001 c 5.272518,10e-4 8.537859,1.31731 10.752541,4.33381 1.154434,1.57239 1.420339,2.95229 1.420339,7.37082 v 5.43626 l 69.970051,0.001 c 11.5784,1.9e-4 22.92497,0.004 33.73375,0.0174 47.27249,0.0566 84.25818,0.27901 85.36126,1.05169 1.67691,1.17463 1.97686,3.00594 0.70122,4.28162 -0.44475,0.44476 -36.30441,0.66948 -86.05283,0.76082 -21.06938,0.0387 -44.62994,0.0534 -69.04646,0.0509 l -106.675575,-0.0114 z m 9.230924,-5.94435 c -0.894725,-1.67181 -0.915135,-5.58823 -0.0411,-7.88709 0.654265,-1.72087 0.604036,-1.75914 -2.307801,-1.75914 -5.832986,0 -8.566461,4.84685 -5.169206,9.16576 1.194385,1.51841 1.964856,1.80698 4.824701,1.80698 3.152264,0 3.350961,-0.0978 2.693409,-1.32651 z m 11.141528,-2.67463 c -0.219789,-2.42388 -0.04946,-4.58662 0.43206,-5.48637 0.659724,-1.2327 0.610077,-1.48523 -0.29201,-1.48523 -1.670801,0 -4.917236,1.8761 -5.393336,3.1168 -1.33334,3.47464 0.945549,7.85594 4.086183,7.85594 1.449327,0 1.510803,-0.21075 1.167103,-4.00114 z m 11.666522,2.1152 c -0.655206,-2.41809 -0.648389,-4.80637 0.0208,-7.28371 0.509642,-1.88671 0.45179,-1.94983 -1.387989,-1.5138 -5.795015,1.37339 -5.663726,10.68345 0.150649,10.68345 1.551291,0 1.675416,-0.19243 1.216536,-1.88594 z m 11.33941,-0.21578 c -0.706863,-2.02771 -0.511622,-5.17317 0.476138,-7.67088 0.668547,-1.69052 -1.730611,-1.59324 -3.960249,0.16061 -2.278407,1.79221 -2.860431,4.3176 -1.570128,6.81278 1.106033,2.13882 1.918993,2.66029 4.279531,2.74508 1.388094,0.0499 1.449396,-0.1122 0.774708,-2.04757 z m 11.800872,0.77521 c -0.894725,-1.67181 -0.915133,-5.58823 -0.04107,-7.88709 0.524433,-1.37939 0.457376,-1.75914 -0.310633,-1.75914 -3.060494,0 -5.844558,2.97034 -5.844558,6.23561 0,1.93742 3.035696,4.73713 5.136426,4.73713 1.537227,0 1.676504,-0.17433 1.059863,-1.32651 z m 12.86884,0.50355 c 1.229962,-1.22995 1.046298,-7.77108 -0.254726,-9.0721 -1.331768,-1.33178 -1.909022,-1.34162 -4.35964,-0.0743 -2.127161,1.10001 -2.792232,2.29315 -2.792232,5.00929 0,3.62365 5.081625,6.46216 7.406598,4.13717 z M 36.385214,192.58193 c 0,-4.89175 0.217999,-6.04726 1.35546,-7.18471 1.015795,-1.0158 1.746173,-1.21132 2.914634,-0.78028 1.453635,0.53624 1.572458,1.02255 1.755456,7.18472 l 0.196283,6.60954 h 2.718349 2.71835 v -2.78827 c 0,-3.57949 1.017261,-5.44128 2.973052,-5.44128 2.350687,0 3.199113,1.30952 3.199113,4.93774 v 3.29181 h 2.717448 2.717449 l 0.197185,-6.26213 c 0.170795,-5.42416 0.384989,-6.38656 1.600583,-7.19179 1.195586,-0.79199 1.627178,-0.77292 2.914634,0.12888 1.366221,0.95693 1.511233,1.64703 1.511233,7.19177 v 6.13329 h 2.743185 2.743184 v -9.60116 -9.60113 H 51.472727 31.58464 v 9.60113 9.60116 h 2.400287 2.400287 z M 71.360812,169.76544 V 166.4941 L 63.4666,162.56455 c -7.17301,-3.57052 -8.301814,-3.92952 -12.355754,-3.92952 -4.039923,0 -5.173343,0.35698 -11.993871,3.7776 l -7.532335,3.77762 v 3.42325 3.42324 H 51.472727 71.360812 Z M 53.530114,150.06259 c 0,-2.28598 -0.114308,-2.40029 -2.400284,-2.40029 -2.285988,0 -2.400287,0.11416 -2.400287,2.40029 0,2.28598 0.114307,2.40027 2.400287,2.40027 2.285985,0 2.400284,-0.11432 2.400284,-2.40027 z m -0.164803,-41.31921 -0.1781,-32.746752 h -2.057386 -2.05739 l -0.1781,32.746752 -0.178097,32.74675 h 2.413587 2.413584 z"
       id="path406"
       sodipodi:nodetypes="ssscccccccsssscsssccssccssssccssssssssssssssssssssssssssscssssscscsccscsscccssscccsssscccccccccccscssssccccccscssscccccccccc" /><path
       id="circle982"
       style="fill:#000000;stroke:#ff9800;stroke-width:0.00189186"
       d="m 264.41341,189.72819 v 0.003 c -0.01,0.0227 -0.98268,2.32366 -3.73621,4.53151 -0.0102,0.008 -0.0204,0.0165 -0.0305,0.0248 -0.006,0.005 -0.0117,0.009 -0.0176,0.0139 v 0.001 c -0.51857,0.43036 -0.81875,1.06916 -0.81908,1.74305 10e-6,1.25176 1.01476,2.26652 2.26653,2.26652 0.72934,-6.3e-4 1.41381,-0.35219 1.83917,-0.94464 l 0.10645,-0.004 c -0.0694,3.89266 -2.13475,4.80436 -2.13475,4.80436 h 2.50269 v -0.001 h 2.55023 c 0,0 -2.11205,-0.91255 -2.1823,-4.80695 l 0.15348,0.005 c 0.42536,0.59279 1.11007,0.94458 1.83968,0.94517 1.25177,-1e-5 2.26652,-1.01477 2.26653,-2.26653 -4e-5,-0.67398 -0.30004,-1.31299 -0.81855,-1.74356 -0.014,-0.0111 -0.0275,-0.0225 -0.0413,-0.0336 l -0.009,-0.007 c -2.74891,-2.20503 -3.72264,-4.50164 -3.73414,-4.52893 v -0.002 c 0,0 -5.1e-4,5.1e-4 -5.1e-4,5.2e-4 -3e-5,-6e-5 -5.2e-4,-0.002 -5.2e-4,-0.002 z"
       sodipodi:nodetypes="ccsccccccccccccccccccccccc" /><path
       d="m 247.19327,145.18564 c 20.74213,0.0566 36.97065,0.27901 37.45465,1.05169 0.73579,1.17463 0.86741,3.00594 0.30768,4.28162 -0.19514,0.44476 -15.92958,0.66948 -37.7581,0.76081"
       style="fill:#000000;stroke-width:0.454274"
       id="path1240" /><path
       d="m 242.95214,145.18222 c 0.0566,38.04563 0.27901,67.81231 1.05169,68.70007 1.17463,1.3496 3.00594,1.59102 4.28162,0.56435 0.44476,-0.35793 0.66948,-29.21835 0.76081,-69.25666"
       style="fill:#000000;stroke-width:0.615239"
       id="path1260" /><text
       xml:space="preserve"
       style="font-style:normal;font-variant:normal;font-weight:bold;font-stretch:normal;font-size:21.1926px;font-family:C059;-inkscape-font-specification:'C059 Bold';fill:#000000;stroke:#ff9800;stroke-width:0.0133498"
       x="96.561928"
       y="185.24382"
       id="text1316"><tspan
         sodipodi:role="line"
         style="stroke-width:0.0133498"
         x="96.561928"
         y="185.24382"
         id="tspan1368" /></text><text
       xml:space="preserve"
       style="font-style:normal;font-variant:normal;font-weight:bold;font-stretch:normal;font-size:26.0214px;font-family:C059;-inkscape-font-specification:'C059 Bold';fill:#000000;stroke:#ff9800;stroke-width:0.0163913"
       x="95.682579"
       y="155.2388"
       id="text1372"
       transform="scale(0.85373009,1.1713304)"><tspan
         sodipodi:role="line"
         style="font-style:normal;font-variant:normal;font-weight:bold;font-stretch:normal;font-family:C059;-inkscape-font-specification:'C059 Bold';fill:#000000;stroke-width:0.0163913"
         x="95.682579"
         y="155.2388"
         id="tspan1376">Ace of Spade </tspan></text><text
       xml:space="preserve"
       style="font-style:normal;font-variant:normal;font-weight:bold;font-stretch:normal;font-size:19.6376px;font-family:C059;-inkscape-font-specification:'C059 Bold';fill:#000000;stroke:#ff9800;stroke-width:0.0123701"
       x="302.70236"
       y="153.32718"
       id="text1382"
       transform="scale(0.85373009,1.1713304)"><tspan
         sodipodi:role="line"
         style="font-style:normal;font-variant:normal;font-weight:bold;font-stretch:normal;font-family:C059;-inkscape-font-specification:'C059 Bold';fill:#000000;stroke-width:0.0123701"
         x="302.70236"
         y="153.32718"
         id="tspan1380">A</tspan></text><text
       xml:space="preserve"
       style="font-style:normal;font-variant:normal;font-weight:bold;font-stretch:normal;font-size:26.0214px;font-family:C059;-inkscape-font-specification:'C059 Bold';fill:#000000;stroke:#ff9800;stroke-width:0.0163913"
       x="148.912"
       y="180.05518"
       id="text1390"
       transform="scale(0.85373009,1.1713304)"><tspan
         sodipodi:role="line"
         style="font-style:normal;font-variant:normal;font-weight:bold;font-stretch:normal;font-family:C059;-inkscape-font-specification:'C059 Bold';fill:#000000;stroke-width:0.0163913"
         x="148.912"
         y="180.05518"
         id="tspan1388">Cleaners</tspan></text></g></svg>
